<svg width="32" height="32" viewBox="0 0 32 32" fill="none" xmlns="http://www.w3.org/2000/svg">
<g clip-path="url(#clip0_61_2234)">
<circle cx="16" cy="16" r="16" fill="#AC7E65"/>
<path d="M23.2288 23.1904L22.2737 11.3846C22.2474 11.0585 21.9751 10.8074 21.6479 10.8074H19.7732V10.6559C19.7732 8.64009 18.1331 7 16.1171 7C14.1011 7 12.461 8.64009 12.461 10.6561V10.8076H10.5863C10.2592 10.8076 9.98687 11.0588 9.96049 11.3849L9.00543 23.1904C8.96776 23.6552 9.12726 24.1182 9.44331 24.4606C9.75957 24.8034 10.2083 25 10.6744 25H21.5598C22.0261 25 22.4747 24.8034 22.7909 24.4606C23.107 24.118 23.2662 23.655 23.2288 23.1904ZM13.7168 10.6561C13.7168 9.33266 14.7937 8.25581 16.1171 8.25581C17.4405 8.25581 18.5174 9.33266 18.5174 10.6561V10.8076H13.7168V10.6561ZM21.8677 23.6092C21.8213 23.6598 21.7195 23.7442 21.5598 23.7442H10.6744C10.5147 23.7442 10.413 23.6599 10.3665 23.6092C10.3201 23.5589 10.2443 23.4507 10.2573 23.2917L11.1656 12.0632H12.461V15.176C12.461 15.5228 12.7421 15.8039 13.0889 15.8039C13.4357 15.8039 13.7168 15.5228 13.7168 15.176V12.0632H18.5174V15.176C18.5174 15.5228 18.7985 15.8039 19.1453 15.8039C19.4921 15.8039 19.7732 15.5228 19.7732 15.176V12.0632H21.0685L21.9769 23.2919C21.9899 23.451 21.914 23.5589 21.8677 23.6092Z" fill="#FEFEFE"/>
</g>
<defs>
<clipPath id="clip0_61_2234">
<rect width="32" height="32" fill="white"/>
</clipPath>
</defs>
</svg>
