<svg width="24" height="24" viewBox="0 0 24 24" fill="none" xmlns="http://www.w3.org/2000/svg">
<circle cx="12" cy="12" r="12" fill="#AC7E65"/>
<path d="M17.5779 17.5925L16.8398 8.41028C16.8194 8.15665 16.609 7.9613 16.3562 7.9613H14.9074V7.84345C14.9074 6.27563 13.64 5 12.0821 5C10.5241 5 9.25668 6.27563 9.25668 7.84362V7.96147H7.80792C7.55513 7.96147 7.34467 8.15682 7.32429 8.41045L6.58623 17.5925C6.55712 17.9541 6.68038 18.3142 6.92461 18.5805C7.16902 18.8471 7.51579 19 7.876 19H16.2881C16.6485 19 16.9951 18.8471 17.2395 18.5805C17.4837 18.314 17.6068 17.9539 17.5779 17.5925ZM10.2271 7.84362C10.2271 6.81429 11.0593 5.97674 12.0821 5.97674C13.1048 5.97674 13.937 6.81429 13.937 7.84362V7.96147H10.2271V7.84362ZM16.526 17.9182C16.4901 17.9576 16.4115 18.0233 16.2881 18.0233H7.876C7.7526 18.0233 7.67396 17.9577 7.63807 17.9182C7.60217 17.8792 7.54361 17.795 7.55363 17.6713L8.2556 8.93807H9.25665V11.3591C9.25665 11.6288 9.47388 11.8475 9.74188 11.8475C10.0099 11.8475 10.2271 11.6288 10.2271 11.3591V8.93807H13.9369V11.3591C13.9369 11.6288 14.1542 11.8475 14.4222 11.8475C14.6902 11.8475 14.9074 11.6288 14.9074 11.3591V8.93807H15.9084L16.6104 17.6715C16.6205 17.7952 16.5618 17.8792 16.526 17.9182Z" fill="transparent"/>
</svg>
