<svg width="50" height="50" viewBox="0 0 50 50" fill="none" xmlns="http://www.w3.org/2000/svg">
<path fill-rule="evenodd" clip-rule="evenodd" d="M25.8412 30.9294C26.2576 31.292 26.3013 31.9234 25.939 32.3399L25.9386 32.3403L25.9315 32.3486C25.9252 32.3559 25.9152 32.3677 25.9017 32.3837C25.8748 32.4156 25.8342 32.4643 25.7826 32.5277C25.6794 32.6548 25.5331 32.84 25.3651 33.0674C25.026 33.5265 24.613 34.1383 24.2856 34.7798C23.9479 35.4416 23.7533 36.0359 23.7444 36.4845C23.7403 36.6946 23.7778 36.8376 23.83 36.9376C23.8783 37.0302 23.9659 37.1382 24.1548 37.2435C24.864 37.639 25.4519 38.0247 25.8718 38.4301C26.2953 38.839 26.6553 39.3741 26.6553 40.0524C26.6553 40.7045 26.3191 41.2349 25.9712 41.6374C25.6161 42.0481 25.1285 42.4616 24.5843 42.8877C24.1494 43.2281 23.5209 43.1516 23.1804 42.7167C22.84 42.2819 22.9165 41.6534 23.3513 41.3129C23.8821 40.8973 24.2383 40.5837 24.4582 40.3293C24.5808 40.1875 24.6285 40.1011 24.6464 40.0607C24.6263 40.0267 24.5808 39.9637 24.4826 39.8689C24.2525 39.6467 23.8466 39.3616 23.1808 38.9903C22.6822 38.7124 22.3016 38.3318 22.0569 37.863C21.8161 37.4015 21.7357 36.9102 21.7448 36.4452C21.7626 35.5439 22.119 34.6256 22.5042 33.8707C22.8997 33.0956 23.3815 32.3866 23.7564 31.879C23.9455 31.6231 24.111 31.4135 24.2304 31.2666C24.2902 31.193 24.3385 31.1349 24.3728 31.0944C24.3899 31.0741 24.4035 31.0581 24.4132 31.0468L24.4248 31.0333L24.4283 31.0292L24.43 31.0273C24.4302 31.0271 24.4303 31.0269 25.1662 31.6677L24.4303 31.0269C24.793 30.6104 25.4247 30.5668 25.8412 30.9294ZM24.6608 40.0913C24.6606 40.0913 24.6595 40.0888 24.6584 40.0838C24.6605 40.0889 24.6611 40.0914 24.6608 40.0913Z" fill="#363636"/>
<path d="M20.0848 6.25C20.0848 6.25 25.8848 12.2333 26.8682 14.3333C27.8348 16.4333 34.9348 27.2333 35.4182 29.6667C35.9015 32.0833 34.6515 33.8667 29.5515 34.0167C24.4515 34.1667 20.7348 34.0167 20.7348 34.0167C20.7348 34.0167 15.2515 29.6667 22.8348 28.2167" fill="#EFCAD1"/>
<path fill-rule="evenodd" clip-rule="evenodd" d="M19.5062 5.43381C19.9571 5.11477 20.5811 5.22159 20.9002 5.67241L20.0839 6.25008L19.2677 6.82776C18.9486 6.37695 19.0554 5.75286 19.5062 5.43381ZM29.5812 34.9996C32.1926 34.9227 34.0727 34.4304 35.2305 33.4326C36.4836 32.3527 36.6833 30.8813 36.3978 29.454C36.3419 29.1741 36.2085 28.856 36.0696 28.5619C35.9203 28.2459 35.7235 27.874 35.4915 27.4609C35.0266 26.6336 34.3963 25.5989 33.6625 24.4395C32.1935 22.1185 30.2847 19.2583 28.3962 16.4815C26.5067 13.703 24.6329 11.001 23.2317 8.99405C22.5311 7.99044 21.9484 7.16034 21.5408 6.58101C21.337 6.29134 21.177 6.06436 21.0678 5.90971C21.0133 5.83238 20.9714 5.77314 20.9432 5.73319L20.9004 5.67268C20.9003 5.6725 20.9002 5.67241 20.0839 6.25008C19.2677 6.82776 19.2677 6.82782 19.2678 6.82797L19.3099 6.88751C19.3379 6.92711 19.3795 6.98599 19.4338 7.06294C19.5424 7.21684 19.7019 7.44303 19.9051 7.73184C20.3115 8.30949 20.8928 9.13759 21.5918 10.1389C22.9902 12.1419 24.8591 14.8367 26.7424 17.6062C28.6269 20.3772 30.5212 23.216 31.9725 25.5091C32.6989 26.6568 33.308 27.6578 33.7478 28.4406C33.9681 28.8326 34.1399 29.1593 34.2612 29.4162C34.3218 29.5444 34.3662 29.6476 34.3967 29.7274C34.4291 29.8123 34.437 29.8477 34.4367 29.8462C34.6345 30.8356 34.4509 31.4642 33.9248 31.9176C33.3037 32.4529 32.0092 32.9273 29.5212 33.0005L29.5182 33.0006C26.4566 33.0999 23.9089 33.0833 22.3569 33.0503C21.3101 33.0251 20.3899 32.4432 19.9776 31.5363L19.9749 31.5303C19.7847 31.119 19.7487 30.3709 20.0693 29.8396C20.3134 29.435 20.9364 28.8894 22.6742 29.1706C23.2194 29.2588 23.7329 28.8884 23.8211 28.3432C23.9093 27.798 23.5389 27.2845 22.9937 27.1963C20.7148 26.8275 19.1461 27.4985 18.3569 28.8064C17.6449 29.9863 17.733 31.4445 18.1582 32.3667C18.9131 34.0245 20.5583 35.0081 22.3101 35.0498L22.3127 35.0499C23.8939 35.0835 26.478 35.1002 29.5812 34.9996ZM29.5812 34.9996C29.5808 34.9996 29.5804 34.9996 29.58 34.9996L29.5506 34.0001L29.583 34.9996C29.5824 34.9996 29.5818 34.9996 29.5812 34.9996Z" fill="#363636"/>
<path d="M26.3669 25.0337C26.6062 25.0337 26.8003 24.8396 26.8003 24.6003C26.8003 24.361 26.6062 24.167 26.3669 24.167C26.1276 24.167 25.9336 24.361 25.9336 24.6003C25.9336 24.8396 26.1276 25.0337 26.3669 25.0337Z" fill="#363636"/>
<path d="M27.6013 22.8999C27.8406 22.8999 28.0346 22.7059 28.0346 22.4665C28.0346 22.2272 27.8406 22.0332 27.6013 22.0332C27.362 22.0332 27.168 22.2272 27.168 22.4665C27.168 22.7059 27.362 22.8999 27.6013 22.8999Z" fill="#363636"/>
<path d="M24.6345 26.0835C24.8738 26.0835 25.0678 25.8895 25.0678 25.6501C25.0678 25.4108 24.8738 25.2168 24.6345 25.2168C24.3952 25.2168 24.2012 25.4108 24.2012 25.6501C24.2012 25.8895 24.3952 26.0835 24.6345 26.0835Z" fill="#363636"/>
<path d="M28.8181 26.0835C29.0574 26.0835 29.2514 25.8895 29.2514 25.6501C29.2514 25.4108 29.0574 25.2168 28.8181 25.2168C28.5788 25.2168 28.3848 25.4108 28.3848 25.6501C28.3848 25.8895 28.5788 26.0835 28.8181 26.0835Z" fill="#363636"/>
<path d="M30.1169 26.0835C30.3562 26.0835 30.5503 25.8895 30.5503 25.6501C30.5503 25.4108 30.3562 25.2168 30.1169 25.2168C29.8776 25.2168 29.6836 25.4108 29.6836 25.6501C29.6836 25.8895 29.8776 26.0835 30.1169 26.0835Z" fill="#363636"/>
<path d="M26.3669 27.9839C26.6062 27.9839 26.8003 27.7898 26.8003 27.5505C26.8003 27.3112 26.6062 27.1172 26.3669 27.1172C26.1276 27.1172 25.9336 27.3112 25.9336 27.5505C25.9336 27.7898 26.1276 27.9839 26.3669 27.9839Z" fill="#363636"/>
<path d="M30.3181 27.9839C30.5574 27.9839 30.7514 27.7898 30.7514 27.5505C30.7514 27.3112 30.5574 27.1172 30.3181 27.1172C30.0788 27.1172 29.8848 27.3112 29.8848 27.5505C29.8848 27.7898 30.0788 27.9839 30.3181 27.9839Z" fill="#363636"/>
<path d="M32.6013 28.4165C32.8406 28.4165 33.0346 28.2225 33.0346 27.9831C33.0346 27.7438 32.8406 27.5498 32.6013 27.5498C32.362 27.5498 32.168 27.7438 32.168 27.9831C32.168 28.2225 32.362 28.4165 32.6013 28.4165Z" fill="#363636"/>
<path d="M25.4841 30.9497C25.7234 30.9497 25.9174 30.7557 25.9174 30.5163C25.9174 30.277 25.7234 30.083 25.4841 30.083C25.2448 30.083 25.0508 30.277 25.0508 30.5163C25.0508 30.7557 25.2448 30.9497 25.4841 30.9497Z" fill="#363636"/>
<path d="M28.0173 27.9839C28.2566 27.9839 28.4507 27.7898 28.4507 27.5505C28.4507 27.3112 28.2566 27.1172 28.0173 27.1172C27.778 27.1172 27.584 27.3112 27.584 27.5505C27.584 27.7898 27.778 27.9839 28.0173 27.9839Z" fill="#363636"/>
<path d="M28.8181 30.3335C29.0574 30.3335 29.2514 30.1395 29.2514 29.9001C29.2514 29.6608 29.0574 29.4668 28.8181 29.4668C28.5788 29.4668 28.3848 29.6608 28.3848 29.9001C28.3848 30.1395 28.5788 30.3335 28.8181 30.3335Z" fill="#363636"/>
</svg>
