<svg width="116" height="20" viewBox="0 0 116 20" fill="none" xmlns="http://www.w3.org/2000/svg">
<g id="Group 686">
<g id="Group 681">
<g id="Group 676">
<rect id="Rectangle 20" width="20" height="20" fill="#AC7E65"/>
<path id="Star 1" d="M10 2L11.7961 7.52786H17.6085L12.9062 10.9443L14.7023 16.4721L10 13.0557L5.29772 16.4721L7.09383 10.9443L2.39155 7.52786H8.20389L10 2Z" fill="white"/>
</g>
</g>
<g id="Group 683">
<g id="Group 676_2">
<rect id="Rectangle 20_2" x="48" width="20" height="20" fill="#AC7E65"/>
<path id="Star 1_2" d="M58 2L59.7961 7.52786H65.6085L60.9062 10.9443L62.7023 16.4721L58 13.0557L53.2977 16.4721L55.0938 10.9443L50.3915 7.52786H56.2039L58 2Z" fill="white"/>
</g>
</g>
<g id="Group 682">
<g id="Group 676_3">
<rect id="Rectangle 20_3" x="24" width="20" height="20" fill="#AC7E65"/>
<path id="Star 1_3" d="M34 2L35.7961 7.52786H41.6085L36.9062 10.9443L38.7023 16.4721L34 13.0557L29.2977 16.4721L31.0938 10.9443L26.3915 7.52786H32.2039L34 2Z" fill="white"/>
</g>
</g>
<g id="Group 684">
<g id="Group 676_4">
<rect id="Rectangle 20_4" x="72" width="20" height="20" fill="#AC7E65"/>
<path id="Star 1_4" d="M82 2L83.7961 7.52786H89.6085L84.9062 10.9443L86.7023 16.4721L82 13.0557L77.2977 16.4721L79.0938 10.9443L74.3915 7.52786H80.2039L82 2Z" fill="white"/>
</g>
</g>
<g id="Group 685">
<g id="Group 676_5">
<rect id="Rectangle 20_5" x="96" width="20" height="20" fill="#AC7E65"/>
<path id="Star 1_5" d="M106 2L107.796 7.52786H113.608L108.906 10.9443L110.702 16.4721L106 13.0557L101.298 16.4721L103.094 10.9443L98.3915 7.52786H104.204L106 2Z" fill="white"/>
</g>
</g>
</g>
</svg>
