<svg width="24" height="25" viewBox="0 0 24 25" fill="none" xmlns="http://www.w3.org/2000/svg">
<g id="image" clip-path="url(#clip0_2_67)">
<path id="Vector" d="M12 24.4501C18.3513 24.4501 23.5 19.3013 23.5 12.9501C23.5 6.5988 18.3513 1.45007 12 1.45007C5.64873 1.45007 0.5 6.5988 0.5 12.9501C0.5 19.3013 5.64873 24.4501 12 24.4501Z" fill="#252121" stroke="#252121"/>
<path id="Vector_2" d="M6 12.4501C5.86739 12.4501 5.74021 12.5028 5.64645 12.5965C5.55268 12.6903 5.5 12.8175 5.5 12.9501C5.5 13.0827 5.55268 13.2099 5.64645 13.3036C5.74021 13.3974 5.86739 13.4501 6 13.4501V12.4501ZM18.354 13.3041C18.4006 13.2576 18.4375 13.2025 18.4627 13.1417C18.4879 13.081 18.5009 13.0159 18.5009 12.9501C18.5009 12.8843 18.4879 12.8192 18.4627 12.7585C18.4375 12.6977 18.4006 12.6425 18.354 12.5961L15.172 9.41409C15.0781 9.3202 14.9508 9.26746 14.818 9.26746C14.6852 9.26746 14.5579 9.3202 14.464 9.41409C14.3701 9.50797 14.3174 9.63531 14.3174 9.76809C14.3174 9.90086 14.3701 10.0282 14.464 10.1221L17.293 12.9501L14.464 15.7781C14.3701 15.872 14.3174 15.9993 14.3174 16.1321C14.3174 16.2649 14.3701 16.3922 14.464 16.4861C14.5579 16.58 14.6852 16.6327 14.818 16.6327C14.9508 16.6327 15.0781 16.58 15.172 16.4861L18.354 13.3041ZM6 13.4501H18V12.4501H6V13.4501Z" fill="white"/>
</g>
<defs>
<clipPath id="clip0_2_67">
<rect width="24" height="24" fill="black" transform="translate(0 0.950073)"/>
</clipPath>
</defs>
</svg>
