<svg width="32" height="32" viewBox="0 0 32 32" fill="none" xmlns="http://www.w3.org/2000/svg">
<g clip-path="url(#clip0_153_1401)">
<path d="M16 0C24.8363 0 32 7.16375 32 16C32 24.8363 24.8363 32 16 32C7.16375 32 0 24.8363 0 16C0 7.16375 7.16375 0 16 0ZM16 0.738125C7.57125 0.738125 0.738125 7.57125 0.738125 16C0.738125 24.4287 7.57125 31.2619 16 31.2619C24.4287 31.2619 31.2619 24.4287 31.2619 16C31.2619 7.57125 24.4287 0.738125 16 0.738125Z" fill="white"/>
<path fill-rule="evenodd" clip-rule="evenodd" d="M16 20.5C18.4853 20.5 20.5 18.4853 20.5 16C20.5 13.5147 18.4853 11.5 16 11.5C13.5147 11.5 11.5 13.5147 11.5 16C11.5 18.4853 13.5147 20.5 16 20.5ZM16 21.5C19.0376 21.5 21.5 19.0376 21.5 16C21.5 12.9624 19.0376 10.5 16 10.5C12.9624 10.5 10.5 12.9624 10.5 16C10.5 19.0376 12.9624 21.5 16 21.5Z" fill="white"/>
<path fill-rule="evenodd" clip-rule="evenodd" d="M23 7.5H9C8.17157 7.5 7.5 8.17157 7.5 9V23C7.5 23.8284 8.17157 24.5 9 24.5H23C23.8284 24.5 24.5 23.8284 24.5 23V9C24.5 8.17157 23.8284 7.5 23 7.5ZM9 6.5C7.61929 6.5 6.5 7.61929 6.5 9V23C6.5 24.3807 7.61929 25.5 9 25.5H23C24.3807 25.5 25.5 24.3807 25.5 23V9C25.5 7.61929 24.3807 6.5 23 6.5H9Z" fill="white"/>
<path d="M22.5 9.75C22.5 10.1642 22.1642 10.5 21.75 10.5C21.3358 10.5 21 10.1642 21 9.75C21 9.33579 21.3358 9 21.75 9C22.1642 9 22.5 9.33579 22.5 9.75Z" fill="white"/>
</g>
<defs>
<clipPath id="clip0_153_1401">
<rect width="32" height="32" fill="white"/>
</clipPath>
</defs>
</svg>
