<svg width="50" height="50" viewBox="0 0 50 50" fill="none" xmlns="http://www.w3.org/2000/svg">
<path d="M41.0336 28.1505C32.0169 22.3505 20.4503 22.3505 11.4336 28.1505V23.9172C11.4336 15.7505 18.0669 9.11719 26.2336 9.11719C34.4003 9.11719 41.0336 15.7505 41.0336 23.9172V28.1505Z" fill="#EFCAD1"/>
<path fill-rule="evenodd" clip-rule="evenodd" d="M26.2329 9.94987C18.5265 9.94987 12.2663 16.2101 12.2663 23.9165V26.6703C20.9195 21.732 31.5464 21.732 40.1996 26.6703V23.9165C40.1996 16.2101 33.9394 9.94987 26.2329 9.94987ZM10.5996 23.9165C10.5996 15.2896 17.606 8.2832 26.2329 8.2832C34.8598 8.2832 41.8663 15.2896 41.8663 23.9165V28.1499C41.8663 28.4547 41.6998 28.7353 41.4322 28.8814C41.1645 29.0274 40.8385 29.0157 40.5821 28.8507C31.84 23.2274 20.6258 23.2274 11.8838 28.8507C11.6274 29.0157 11.3013 29.0274 11.0337 28.8814C10.7661 28.7353 10.5996 28.4547 10.5996 28.1499V23.9165Z" fill="#363636"/>
<path fill-rule="evenodd" clip-rule="evenodd" d="M38.1328 35.8838C38.1328 35.4696 38.4686 35.1338 38.8828 35.1338H40.7995C41.2137 35.1338 41.5495 35.4696 41.5495 35.8838C41.5495 36.298 41.2137 36.6338 40.7995 36.6338H38.8828C38.4686 36.6338 38.1328 36.298 38.1328 35.8838Z" fill="#363636"/>
<path fill-rule="evenodd" clip-rule="evenodd" d="M10.916 35.8838C10.916 35.4696 11.2518 35.1338 11.666 35.1338H13.5827C13.9969 35.1338 14.3327 35.4696 14.3327 35.8838C14.3327 36.298 13.9969 36.6338 13.5827 36.6338H11.666C11.2518 36.6338 10.916 36.298 10.916 35.8838Z" fill="#363636"/>
<path d="M40.1151 35.1667C39.6151 32.3 37.2151 31.25 34.2984 31.25C33.1818 31.25 19.1651 31.25 18.0318 31.25C14.4484 31.25 12.7318 32.9333 12.3484 35.1667C11.8318 38.0667 13.9318 42.9333 18.2151 42.9333C20.1651 42.9333 22.4151 41.85 23.6818 40.2833C24.8484 38.8667 25.3984 36.9167 25.3818 35.7C25.3818 35.4 25.2484 34.8 25.1484 34.5167C24.9651 33.9667 24.4318 33.0667 23.8151 32.5667H28.6318C28.0151 33.0667 27.2984 34.5 27.2984 34.5C27.2984 34.5 27.0651 35.3833 27.0651 35.6833C27.0484 36.9 27.5984 38.8333 28.7651 40.2667C30.0818 41.8667 32.1818 42.9167 34.1151 42.9167C38.7484 42.9167 40.5818 37.85 40.1151 35.1667Z" fill="#363636"/>
<path d="M16.6143 33.4005C16.4976 33.1171 16.1809 33.0005 15.8976 33.1171C14.7809 33.5838 13.9643 34.3005 13.5976 35.1338C13.4809 35.4005 13.5976 35.7338 13.8809 35.8505C14.1476 35.9671 14.4809 35.8504 14.5976 35.5671C14.8476 35.0005 15.4809 34.4671 16.3143 34.1171C16.5976 34.0005 16.7309 33.6838 16.6143 33.4005Z" fill="white"/>
<path d="M40.6334 33.5167L39.4668 26.6334L32.7334 23.8334L26.2334 23.2334L19.7334 23.8334L13.0001 26.6501L11.8334 33.5334C11.8334 33.5334 11.2668 36.9667 13.6168 35.4667C15.9668 33.9667 19.0834 31.0334 26.2334 31.0334C33.3834 31.0334 36.4834 33.9667 38.8501 35.4667C41.2001 36.9501 40.6334 33.5167 40.6334 33.5167Z" fill="white"/>
<path fill-rule="evenodd" clip-rule="evenodd" d="M26.1562 22.4039C26.2072 22.3992 26.2584 22.3992 26.3094 22.4039L32.8094 23.0039C32.8931 23.0116 32.9752 23.032 33.0528 23.0643L39.7861 25.8643C40.0505 25.9742 40.2399 26.2122 40.2878 26.4945L41.4544 33.3778L41.455 33.3814L40.6328 33.5171C41.455 33.3814 41.4551 33.3816 41.4551 33.3819L41.4552 33.3825L41.4554 33.3839L41.4561 33.3878L41.4578 33.3991C41.4593 33.4084 41.4612 33.4208 41.4634 33.4362C41.4678 33.467 41.4737 33.5098 41.48 33.5625C41.4926 33.6675 41.5073 33.814 41.5167 33.9846C41.5347 34.3128 41.5363 34.7849 41.4352 35.232C41.3422 35.6434 41.1023 36.2869 40.4346 36.5596C39.7702 36.831 39.0549 36.5822 38.4047 36.1718L38.4034 36.1709C38.0306 35.9347 37.6616 35.6805 37.2788 35.4168C36.3458 34.7741 35.3312 34.0752 33.9812 33.4425C32.1262 32.573 29.6843 31.8671 26.2328 31.8671C22.7812 31.8671 20.335 32.573 18.4778 33.4426C17.1154 34.0805 16.0922 34.7875 15.1552 35.4349C14.7833 35.6918 14.425 35.9394 14.0645 36.1695C13.4164 36.5832 12.7023 36.8378 12.0366 36.5715C11.3646 36.3027 11.1236 35.6576 11.0305 35.2471C10.9293 34.8007 10.9309 34.3288 10.9489 34.001C10.9583 33.8305 10.9731 33.684 10.9856 33.5791C10.992 33.5264 10.9978 33.4837 11.0022 33.4529C11.0045 33.4375 11.0063 33.425 11.0078 33.4158L11.0096 33.4044L11.0102 33.4006L11.0104 33.3991L11.0105 33.3985C11.0106 33.3983 11.0106 33.398 11.8328 33.5337L11.0106 33.398L11.0112 33.3945L12.1779 26.5111C12.2256 26.2295 12.4143 25.9919 12.6779 25.8816L19.4112 23.0649C19.4893 23.0323 19.5719 23.0117 19.6562 23.0039L26.1562 22.4039ZM12.6551 33.669L12.655 33.6693L12.6547 33.6713C12.6542 33.6749 12.6532 33.6816 12.6518 33.691C12.6491 33.7097 12.645 33.7393 12.6405 33.7775C12.6312 33.8545 12.6201 33.9646 12.6131 34.0925C12.5983 34.3616 12.6051 34.6543 12.6559 34.8786C12.6679 34.9315 12.6798 34.9708 12.6903 34.9995C12.7717 34.9782 12.9234 34.9206 13.1678 34.7646C13.4507 34.584 13.7617 34.3692 14.1031 34.1333C15.0666 33.4678 16.2721 32.635 17.7711 31.9332C19.8473 30.9611 22.5344 30.2004 26.2328 30.2004C29.9313 30.2004 32.6144 30.9611 34.6886 31.9333C36.1723 32.6288 37.3722 33.4549 38.3344 34.1173C38.6855 34.359 39.0049 34.579 39.295 34.7628C39.5409 34.9179 39.6923 34.9735 39.7725 34.9935C39.7836 34.9638 39.7966 34.922 39.8096 34.8646C39.8606 34.6388 39.8673 34.3453 39.8525 34.076C39.8455 33.948 39.8344 33.8379 39.8252 33.7609C39.8206 33.7226 39.8165 33.6931 39.8138 33.6743C39.8125 33.6649 39.8114 33.6583 39.8109 33.6546L39.8105 33.6523L39.8105 33.652L39.8104 33.6515L39.8104 33.6513L38.7214 27.2265L32.5299 24.6519L26.2328 24.0706L19.9366 24.6518L13.7444 27.2421L12.6551 33.669ZM39.7403 35.0586C39.7403 35.0585 39.7411 35.0572 39.7431 35.0551C39.7413 35.0576 39.7404 35.0587 39.7403 35.0586ZM12.7236 35.0685C12.7235 35.0686 12.7224 35.0674 12.7204 35.0645C12.7226 35.0669 12.7236 35.0684 12.7236 35.0685Z" fill="#363636"/>
<path d="M32.916 10.7334C32.916 10.7334 36.816 12.9334 36.816 20.3834Z" fill="#EFCAD1"/>
<path fill-rule="evenodd" clip-rule="evenodd" d="M32.1897 10.3244C32.4158 9.92358 32.9241 9.78193 33.3249 10.0081L32.9155 10.7339C33.3249 10.0081 33.3255 10.0084 33.326 10.0087L33.3272 10.0093L33.3298 10.0108L33.336 10.0144C33.3407 10.0171 33.3463 10.0204 33.3528 10.0242C33.3658 10.032 33.3824 10.0421 33.4024 10.0546C33.4424 10.0797 33.496 10.1148 33.5612 10.1604C33.6916 10.2518 33.8686 10.386 34.0763 10.5692C34.4918 10.9359 35.0296 11.4988 35.5616 12.3069C36.6308 13.9313 37.6488 16.5046 37.6488 20.3839C37.6488 20.8441 37.2757 21.2172 36.8155 21.2172C36.3553 21.2172 35.9822 20.8441 35.9822 20.3839C35.9822 16.8131 35.0503 14.5615 34.1694 13.2233C33.7264 12.5502 33.2892 12.0974 32.9735 11.8189C32.8155 11.6794 32.6878 11.5835 32.605 11.5255C32.5635 11.4964 32.5333 11.4769 32.5162 11.4662C32.5077 11.4608 32.5025 11.4577 32.5007 11.4566C32.1039 11.229 31.9646 10.7235 32.1897 10.3244Z" fill="#363636"/>
<path fill-rule="evenodd" clip-rule="evenodd" d="M36.8333 22.2666C37.2936 22.2666 37.6667 22.6397 37.6667 23.0999V25.6999C37.6667 26.1602 37.2936 26.5333 36.8333 26.5333C36.3731 26.5333 36 26.1602 36 25.6999V23.0999C36 22.6397 36.3731 22.2666 36.8333 22.2666Z" fill="#363636"/>
<path d="M19.732 10.583C19.732 10.583 15.832 12.783 15.832 20.233Z" fill="#EFCAD1"/>
<path fill-rule="evenodd" clip-rule="evenodd" d="M20.4591 10.174C20.6843 10.5731 20.5449 11.0786 20.1482 11.3062C20.1464 11.3073 20.1411 11.3105 20.1326 11.3158C20.1155 11.3265 20.0853 11.3461 20.0439 11.3751C19.961 11.4331 19.8333 11.5291 19.6754 11.6685C19.3597 11.9471 18.9225 12.3998 18.4794 13.0729C17.5986 14.4111 16.6667 16.6627 16.6667 20.2335C16.6667 20.6937 16.2936 21.0668 15.8333 21.0668C15.3731 21.0668 15 20.6937 15 20.2335C15 16.3543 16.0181 13.7809 17.0873 12.1566C17.6192 11.3484 18.157 10.7855 18.5726 10.4188C18.7802 10.2356 18.9572 10.1014 19.0876 10.01C19.1528 9.96436 19.2064 9.92935 19.2465 9.90422C19.2665 9.89166 19.2831 9.88156 19.2961 9.87384C19.3026 9.86998 19.3082 9.8667 19.3128 9.86401L19.3191 9.86041L19.3217 9.85893L19.3228 9.85827C19.3234 9.85796 19.3239 9.85766 19.7333 10.5835L19.3239 9.85766C19.7248 9.63154 20.233 9.77319 20.4591 10.174Z" fill="#363636"/>
<path fill-rule="evenodd" clip-rule="evenodd" d="M23.4668 8.75006C23.4668 7.22316 24.7066 5.9834 26.2335 5.9834C27.7604 5.9834 29.0001 7.22316 29.0001 8.75006C29.0001 9.2103 28.627 9.5834 28.1668 9.5834C27.7066 9.5834 27.3335 9.2103 27.3335 8.75006C27.3335 8.14364 26.8399 7.65007 26.2335 7.65007C25.627 7.65007 25.1335 8.14363 25.1335 8.75006C25.1335 9.2103 24.7604 9.5834 24.3001 9.5834C23.8399 9.5834 23.4668 9.2103 23.4668 8.75006Z" fill="#363636"/>
<path fill-rule="evenodd" clip-rule="evenodd" d="M30.4553 38.8971C30.4553 38.8971 30.4553 38.8971 30.4553 38.8971L30.4553 38.8971L30.4551 38.8968L30.4549 38.8963L30.4547 38.8959C30.4547 38.8959 30.4547 38.896 30.4548 38.8961C30.3515 38.6912 30.1018 38.6084 29.8964 38.7111C29.6906 38.814 29.6072 39.0643 29.7101 39.2701L30.0828 39.0838C29.7101 39.2701 29.7102 39.2703 29.7103 39.2705L29.7105 39.2709L29.711 39.2719L29.7123 39.2745L29.7161 39.2818C29.7191 39.2876 29.7231 39.2952 29.7282 39.3046C29.7384 39.3234 29.7528 39.3492 29.7715 39.3809C29.8088 39.4441 29.8635 39.5312 29.9364 39.6332C30.0817 39.8366 30.3023 40.1038 30.6053 40.3602C31.2176 40.8783 32.1667 41.3498 33.475 41.1629C33.7028 41.1304 33.8611 40.9193 33.8286 40.6915C33.796 40.4637 33.585 40.3054 33.3572 40.3379C32.3322 40.4844 31.6146 40.1226 31.1436 39.724C30.9049 39.5221 30.7297 39.31 30.6145 39.1489C30.5572 39.0686 30.5156 39.0021 30.4891 38.9572C30.4759 38.9348 30.4665 38.9179 30.4609 38.9076C30.4581 38.9024 30.4563 38.8989 30.4554 38.8972C30.4551 38.8967 30.4549 38.8963 30.4548 38.8961C30.4548 38.8961 30.4548 38.8961 30.4548 38.8961M30.4553 38.8971C30.4553 38.8971 30.4553 38.8971 30.4553 38.8971Z" fill="white"/>
<path d="M26.8667 16.4171C26.8833 16.5838 27.0333 16.7171 27.2 16.7505L29.2667 17.2171C29.3667 17.2338 29.3667 17.3671 29.2667 17.3838C28.7167 17.5005 27.7 17.7338 27.2 17.8505C27.0167 17.8838 26.8833 18.0338 26.8667 18.1838L26.3333 21.7671C26.3167 21.8671 26.15 21.8671 26.1333 21.7671L25.6 18.1838C25.5833 18.0171 25.4333 17.8838 25.2667 17.8505C24.7667 17.7505 23.75 17.5171 23.2 17.3838C23.1 17.3671 23.1 17.2338 23.2 17.2171C23.75 17.1005 24.7667 16.8671 25.2667 16.7505C25.45 16.7171 25.5833 16.5671 25.6 16.4171L26.1333 12.8338C26.15 12.7338 26.3167 12.7338 26.3333 12.8338C26.5167 13.9505 26.85 16.2005 26.8667 16.4171Z" fill="white"/>
<path d="M41.3654 8.65033C41.382 8.73366 41.4487 8.80033 41.5487 8.83366L42.632 9.08366C42.682 9.10033 42.682 9.15033 42.632 9.16699C42.332 9.23366 41.8154 9.35033 41.5487 9.41699C41.4487 9.43366 41.382 9.51699 41.3654 9.60033L41.082 11.4837C41.0654 11.5337 40.982 11.5337 40.982 11.4837L40.6987 9.60033C40.682 9.51699 40.6154 9.45033 40.5154 9.41699C40.2487 9.36699 39.7154 9.23366 39.432 9.16699C39.382 9.15033 39.382 9.10033 39.432 9.08366C39.732 9.01699 40.2487 8.90033 40.5154 8.83366C40.6154 8.81699 40.682 8.73366 40.6987 8.65033L40.982 6.76699C40.9987 6.71699 41.082 6.71699 41.082 6.76699C41.182 7.36699 41.3487 8.53366 41.3654 8.65033Z" fill="#EFCAD1"/>
</svg>
