<svg width="50" height="50" viewBox="0 0 50 50" fill="none" xmlns="http://www.w3.org/2000/svg">
<path d="M11.1665 9.8332C11.1832 9.96654 11.2999 10.0832 11.4499 10.1165L13.2165 10.5165C13.2999 10.5332 13.2999 10.6332 13.2165 10.6499C12.7499 10.7499 11.8832 10.9499 11.4499 11.0499C11.2999 11.0832 11.1832 11.1999 11.1665 11.3332L10.7165 14.3832C10.6999 14.4665 10.5665 14.4665 10.5499 14.3832L10.0832 11.3332C10.0665 11.1999 9.94987 11.0832 9.79987 11.0499C9.3832 10.9665 8.51654 10.7665 8.0332 10.6499C7.94987 10.6332 7.94987 10.5332 8.0332 10.5165C8.49987 10.4165 9.36654 10.2165 9.79987 10.1165C9.94987 10.0832 10.0665 9.96654 10.0832 9.8332L10.5332 6.7832C10.5499 6.69987 10.6832 6.69987 10.6999 6.7832C10.8665 7.74987 11.1499 9.64987 11.1665 9.8332Z" fill="#EFCAD1"/>
<path d="M24.434 40.5496C32.6354 40.5496 39.284 33.901 39.284 25.6996C39.284 17.4982 32.6354 10.8496 24.434 10.8496C16.2326 10.8496 9.58398 17.4982 9.58398 25.6996C9.58398 33.901 16.2326 40.5496 24.434 40.5496Z" fill="#EFCAD1"/>
<path opacity="0.5" d="M7.98242 17.1494H43.2324" stroke="white" stroke-width="5" stroke-miterlimit="10" stroke-linecap="round" stroke-linejoin="round"/>
<path opacity="0.5" d="M7.98242 19.8994H43.2324" stroke="white" stroke-width="5" stroke-miterlimit="10" stroke-linecap="round" stroke-linejoin="round"/>
<path opacity="0.5" d="M7.98242 22.667H43.2324" stroke="white" stroke-width="5" stroke-miterlimit="10" stroke-linecap="round" stroke-linejoin="round"/>
<path opacity="0.5" d="M7.98242 25.417H43.2324" stroke="white" stroke-width="5" stroke-miterlimit="10" stroke-linecap="round" stroke-linejoin="round"/>
<path d="M32.7836 39.867C38.7759 39.867 43.6336 35.0093 43.6336 29.017C43.6336 23.0247 38.7759 18.167 32.7836 18.167C26.7913 18.167 21.9336 23.0247 21.9336 29.017C21.9336 35.0093 26.7913 39.867 32.7836 39.867Z" fill="#EFCAD1" stroke="#363636" stroke-width="10" stroke-miterlimit="10" stroke-linecap="round" stroke-linejoin="round"/>
<path d="M33.0827 34.7503C35.5219 34.7503 37.4993 32.7729 37.4993 30.3337C37.4993 27.8944 35.5219 25.917 33.0827 25.917C30.6434 25.917 28.666 27.8944 28.666 30.3337C28.666 32.7729 30.6434 34.7503 33.0827 34.7503Z" fill="white"/>
</svg>
