<svg width="32" height="32" viewBox="0 0 32 32" fill="none" xmlns="http://www.w3.org/2000/svg">
<g clip-path="url(#clip0_153_1394)">
<path d="M16 0C24.8363 0 32 7.16375 32 16C32 24.8363 24.8363 32 16 32C7.16375 32 0 24.8363 0 16C0 7.16375 7.16375 0 16 0ZM25.135 10.1337C24.8644 9.95063 23.9925 10.5425 23.6462 10.6425C23.8681 10.3837 24.9519 9.09125 24.5625 8.68062C23.9225 9.045 23.1669 9.39812 22.1356 9.42875C21.4031 8.73188 20.4531 8.35 19.4431 8.35C17.0294 8.35 15.2312 10.5131 15.5406 12.8713C11.7337 12.8069 8.92938 9.04625 8.47313 9.08937C8.35063 9.1 8.24125 9.17 8.17937 9.27625C7.135 11.0887 7.77312 12.6888 8.41375 13.6469C8.12625 13.4756 7.66375 13.3306 7.655 13.84C7.62688 15.5781 8.43937 16.595 9.22875 17.1719C9.00063 17.2031 8.85188 17.4319 8.91938 17.6544C9.46688 19.4456 10.7944 20.0806 11.6706 20.305C9.8975 21.6425 7.32812 21.2062 7.29938 21.2006C6.9125 21.1325 6.69312 21.6331 7.00437 21.8706C9.11875 23.4844 12.3981 23.9894 14.9812 23.4312C23.2169 21.48 23.4781 13.955 23.4613 12.6731C23.7013 12.4494 25.2725 11.1169 25.135 10.1337ZM22.7044 12.5381C22.7056 12.5588 22.8319 14.5981 21.9231 16.8706C20.7087 19.9069 18.315 21.8681 14.8156 22.6975C14.7781 22.705 11.5406 23.3756 8.69875 22.0238C9.91375 21.9731 11.5962 21.6306 12.78 20.3019C12.8787 20.1912 12.9025 20.02 12.8419 19.8844C12.6031 19.3556 10.8356 19.9475 9.86063 17.9819C10.2069 17.9969 11.1875 17.9906 11.1263 17.4481C11.0544 16.8138 8.81437 17.0963 8.44687 14.505C8.77 14.64 9.67062 14.9012 9.815 14.4069C9.985 13.8237 7.59563 12.6488 8.6 10.1281C9.61438 11.1844 12.5075 13.8156 16.015 13.6144C16.25 13.6006 16.4156 13.3756 16.3581 13.1469C15.855 11.1413 17.3231 9.1025 19.4431 9.1025C20.3019 9.1025 21.1075 9.44562 21.7113 10.0681C22.0019 10.3681 23.2806 9.92937 23.6019 9.80937C23.4088 10.0356 23.0806 10.3981 22.7031 10.6944C22.5725 10.7969 22.5244 10.9731 22.585 11.1275C22.7456 11.5387 23.6481 11.275 23.97 11.21C23.7037 11.4931 22.8062 12.1919 22.7044 12.5381ZM16 0.738125C7.57125 0.738125 0.738125 7.57125 0.738125 16C0.738125 24.4287 7.57125 31.2619 16 31.2619C24.4287 31.2619 31.2619 24.4287 31.2619 16C31.2619 7.57125 24.4287 0.738125 16 0.738125Z" fill="white"/>
</g>
<defs>
<clipPath id="clip0_153_1394">
<rect width="32" height="32" fill="white"/>
</clipPath>
</defs>
</svg>
