<svg width="24" height="24" viewBox="0 0 24 24" fill="none" xmlns="http://www.w3.org/2000/svg">
<g clip-path="url(#clip0_72_592)">
<path d="M11.9998 13.0762C9.26132 13.0796 6.99017 15.1969 6.79492 17.9284C10.1715 19.0663 13.8281 19.0663 17.2047 17.9284C17.0094 15.1969 14.7382 13.0796 11.9998 13.0762Z" fill="#AC7E65"/>
<path d="M12 0C5.37257 0 0 5.37257 0 12C0 18.6274 5.37257 24 12 24C18.6274 24 24 18.6274 24 12C23.9925 5.37567 18.6243 0.00748235 12 0ZM12 4.17393C13.873 4.17393 15.3913 5.69228 15.3913 7.56522C15.3913 9.43816 13.873 10.9565 12 10.9565C10.127 10.9565 8.60871 9.43816 8.60871 7.56522C8.61101 5.69322 10.128 4.17624 12 4.17393ZM17.9176 18.7826C14.0946 20.1704 9.90541 20.1704 6.0824 18.7826C5.87624 18.7075 5.73901 18.5116 5.73911 18.2921C5.73911 14.8344 8.54221 12.0313 12 12.0313C15.4577 12.0313 18.2608 14.8344 18.2608 18.2921C18.2609 18.5116 18.1237 18.7076 17.9176 18.7826Z" fill="#AC7E65"/>
<path d="M12.0002 9.9134C13.2968 9.9134 14.348 8.86225 14.348 7.56559C14.348 6.26892 13.2968 5.21777 12.0002 5.21777C10.7035 5.21777 9.65234 6.26892 9.65234 7.56559C9.65234 8.86225 10.7035 9.9134 12.0002 9.9134Z" fill="#AC7E65"/>
</g>
<defs>
<clipPath id="clip0_72_592">
<rect width="24" height="24" fill="white"/>
</clipPath>
</defs>
</svg>
